<svg width="49" height="49" viewBox="0 0 49 49" xmlns="http://www.w3.org/2000/svg">
<path fill-rule="evenodd" clip-rule="evenodd" d="M28.8086 36.5355C28.0042 36.7247 27.2275 37.0333 26.5546 37.5131L26.1639 37.7916C25.725 38.1045 25.3657 38.516 25.1148 38.993C24.7399 39.7057 23.7196 39.7057 23.3447 38.993C23.0938 38.516 22.7344 38.1045 22.2956 37.7916L21.9048 37.513C21.2319 37.0332 20.4552 36.7246 19.6507 36.5354C11.3694 34.5874 5.22998 27.4764 5.22998 19.0023C5.22998 9.02741 13.7366 0.941162 24.23 0.941162C34.7234 0.941162 43.23 9.02741 43.23 19.0023C43.23 27.4766 37.0902 34.5878 28.8086 36.5355ZM24.23 46.4373C25.5417 46.4373 26.605 45.3739 26.605 44.0623C26.605 42.7506 25.5417 41.6873 24.23 41.6873C22.9183 41.6873 21.855 42.7506 21.855 44.0623C21.855 45.3739 22.9183 46.4373 24.23 46.4373Z"/>
<path fill-rule="evenodd" clip-rule="evenodd" d="M25.3038 21.0052C25.3038 20.7528 25.3992 20.5097 25.571 20.3248L32.0855 13.3091C32.6797 12.6693 32.2259 11.6287 31.3528 11.6287L17.8648 11.6287C16.9916 11.6287 16.5378 12.6693 17.132 13.3091L23.6462 20.3245C23.818 20.5094 23.9135 20.7525 23.9135 21.0049L23.9135 27.3127C23.9135 27.8649 23.4657 28.3127 22.9135 28.3127H20.7855C20.5935 28.3127 20.4379 28.4683 20.4379 28.6602C20.4379 28.8522 20.5935 29.0078 20.7855 29.0078H23.9134L23.9135 29.0079L23.9135 29.0079H25.3038L25.3038 29.0079L25.3038 29.0078H28.4324C28.6243 29.0078 28.78 28.8522 28.78 28.6602C28.78 28.4683 28.6243 28.3127 28.4324 28.3127H26.3038C25.7515 28.3127 25.3038 27.8649 25.3038 27.3127V21.0052ZM30.8653 13.0191L18.3523 13.0191L21.4805 16.495L27.7371 16.495L30.8653 13.0191ZM26.6945 17.8853C26.6945 18.2693 26.3832 18.5805 25.9993 18.5805C25.6154 18.5805 25.3041 18.2693 25.3041 17.8853C25.3041 17.5014 25.6154 17.1902 25.9993 17.1902C26.3832 17.1902 26.6945 17.5014 26.6945 17.8853Z" fill="white"/>
</svg>
